# xmcd
#
# Track frame offsets:
#	150
#	16973
#	34623
#	50975
#
# Disc length: 860 seconds
# Revision: 0
# Processed by: cddbd v1.5.2PL0 Copyright (c) Steve Scherf et al.
# Submitted via: dBpowerAMP V12.0
#
DISCID=2d035a04
DTITLE=Various Artist - Pinecastle Fall 2016 Radio Sampler
DYEAR=2016
DGENRE=Country
TTITLE0=Blue Mafia - Like a Mining Man
TTITLE1=Flashback - Two Rivers
TTITLE2=Wildfire - Bible and a Bis Ticket
TTITLE3=Ray Cardwell - Tennessee Moon
EXTD=
EXTT0=
EXTT1=
EXTT2=
EXTT3=
PLAYORDER=
